<?xml version="1.0" standalone="no"?>
<!DOCTYPE svg PUBLIC "-//W3C//DTD SVG 20010904//EN"
 "http://www.w3.org/TR/2001/REC-SVG-20010904/DTD/svg10.dtd">
<svg version="1.0" xmlns="http://www.w3.org/2000/svg"
 width="260.000000pt" height="260.000000pt" viewBox="0 0 260.000000 260.000000"
 preserveAspectRatio="xMidYMid meet">
<metadata>
Created by potrace 1.14, written by Peter Selinger 2001-2017
</metadata>
<g transform="translate(0.000000,260.000000) scale(0.100000,-0.100000)"
fill="#000000" stroke="none">
<path d="M1070 2240 c-92 -15 -213 -58 -276 -98 -141 -91 -224 -243 -224 -406
0 -130 40 -233 127 -326 104 -113 195 -154 523 -240 244 -64 287 -79 339 -117
90 -69 80 -209 -22 -299 -56 -49 -125 -73 -232 -81 -139 -9 -253 25 -328 100
-43 43 -94 141 -103 200 -4 20 -10 40 -15 42 -7 5 -348 -31 -355 -37 -1 -2 3
-35 11 -73 54 -281 211 -453 480 -527 68 -18 107 -22 265 -22 159 0 197 3 275
22 132 33 225 82 300 156 103 104 155 232 155 386 0 155 -38 256 -137 360
-102 109 -199 151 -544 239 -281 71 -357 110 -380 193 -12 48 2 106 33 135 64
58 190 90 320 80 163 -13 248 -85 282 -239 6 -28 7 -28 85 -28 43 0 126 3 184
7 124 7 119 0 92 127 -45 212 -200 369 -422 427 -88 23 -338 34 -433 19z"/>
</g>
</svg>
